<svg width="801" height="437" viewBox="0 0 801 437" fill="none" xmlns="http://www.w3.org/2000/svg">
<path d="M613.5 370C716.491 370 800 287.407 800 185.5C800 83.5933 716.491 1 613.5 1C510.509 1 427 83.5933 427 185.5C427 287.407 510.509 370 613.5 370Z" stroke="url(#paint0_linear_197_2)" stroke-width="2"/>
<circle cx="460" cy="212" r="198" fill="black" fill-opacity="0.5"/>
<path d="M459.5 436C577.9 436 674 346.296 674 235.5C674 124.704 577.9 35 459.5 35C341.1 35 245 124.704 245 235.5C245 346.296 341.1 436 459.5 436Z" stroke="url(#paint1_linear_197_2)" stroke-width="2"/>
<ellipse cx="595.5" cy="186.5" rx="154.5" ry="150.5" fill="black"/>
<path d="M174.372 158.32C172.26 158.32 170.319 157.808 168.548 156.784C166.777 155.76 165.38 154.363 164.356 152.592C163.332 150.821 162.82 148.891 162.82 146.8C162.82 144.709 163.332 142.779 164.356 141.008C165.38 139.237 166.777 137.84 168.548 136.816C170.319 135.792 172.26 135.28 174.372 135.28C176.484 135.28 178.425 135.792 180.196 136.816C181.967 137.84 183.364 139.237 184.388 141.008C185.412 142.779 185.924 144.709 185.924 146.8C185.924 148.891 185.412 150.821 184.388 152.592C183.364 154.363 181.967 155.76 180.196 156.784C178.425 157.808 176.484 158.32 174.372 158.32ZM174.372 155.92C175.993 155.92 177.476 155.515 178.82 154.704C180.185 153.893 181.263 152.795 182.052 151.408C182.863 150.021 183.268 148.485 183.268 146.8C183.268 145.115 182.863 143.579 182.052 142.192C181.263 140.805 180.185 139.707 178.82 138.896C177.476 138.085 175.993 137.68 174.372 137.68C172.751 137.68 171.257 138.085 169.892 138.896C168.548 139.707 167.471 140.805 166.66 142.192C165.871 143.579 165.476 145.115 165.476 146.8C165.476 148.485 165.871 150.021 166.66 151.408C167.471 152.795 168.548 153.893 169.892 154.704C171.257 155.515 172.751 155.92 174.372 155.92ZM216.985 142C218.414 142 219.715 142.331 220.889 142.992C222.083 143.653 223.011 144.56 223.673 145.712C224.355 146.843 224.697 148.112 224.697 149.52C224.697 149.883 224.686 150.149 224.665 150.32H211.609C211.651 152.048 212.153 153.445 213.113 154.512C214.094 155.557 215.385 156.08 216.985 156.08C218.201 156.08 219.235 155.792 220.089 155.216C220.942 154.619 221.582 153.733 222.009 152.56H224.505C223.95 154.437 223.022 155.867 221.721 156.848C220.419 157.829 218.841 158.32 216.985 158.32C215.513 158.32 214.169 157.968 212.953 157.264C211.758 156.539 210.819 155.557 210.137 154.32C209.454 153.083 209.113 151.696 209.113 150.16C209.113 148.624 209.454 147.237 210.137 146C210.819 144.763 211.758 143.792 212.953 143.088C214.169 142.363 215.513 142 216.985 142ZM216.985 144.24C215.427 144.24 214.169 144.731 213.209 145.712C212.249 146.693 211.715 148.016 211.609 149.68H222.297C222.211 147.952 221.678 146.619 220.697 145.68C219.737 144.72 218.499 144.24 216.985 144.24ZM239.196 158.32C237.361 158.32 235.879 157.829 234.748 156.848C233.617 155.845 233.009 154.469 232.924 152.72H235.324C235.409 153.829 235.783 154.672 236.444 155.248C237.105 155.803 238.023 156.08 239.196 156.08C240.177 156.08 240.988 155.877 241.628 155.472C242.268 155.067 242.588 154.491 242.588 153.744C242.588 153.168 242.417 152.709 242.076 152.368C241.735 152.005 241.308 151.739 240.796 151.568C240.305 151.397 239.601 151.205 238.684 150.992C237.532 150.736 236.615 150.48 235.932 150.224C235.249 149.947 234.663 149.509 234.172 148.912C233.681 148.315 233.436 147.504 233.436 146.48C233.436 145.627 233.681 144.859 234.172 144.176C234.684 143.493 235.367 142.96 236.22 142.576C237.073 142.192 238.012 142 239.036 142C240.657 142 242.012 142.491 243.1 143.472C244.188 144.432 244.785 145.755 244.892 147.44H242.492C242.385 146.373 242.012 145.573 241.372 145.04C240.753 144.507 239.943 144.24 238.94 144.24C238.087 144.24 237.372 144.443 236.796 144.848C236.22 145.232 235.932 145.776 235.932 146.48C235.932 146.992 236.092 147.408 236.412 147.728C236.753 148.048 237.159 148.293 237.628 148.464C238.119 148.635 238.801 148.827 239.676 149.04C240.828 149.296 241.756 149.573 242.46 149.872C243.185 150.149 243.804 150.597 244.316 151.216C244.828 151.835 245.084 152.677 245.084 153.744C245.084 155.109 244.519 156.219 243.388 157.072C242.257 157.904 240.86 158.32 239.196 158.32ZM262.755 142C264.184 142 265.518 142.363 266.755 143.088C267.992 143.792 268.974 144.773 269.699 146.032C270.424 147.269 270.787 148.645 270.787 150.16C270.787 151.675 270.424 153.061 269.699 154.32C268.974 155.557 267.992 156.539 266.755 157.264C265.518 157.968 264.184 158.32 262.755 158.32C261.582 158.32 260.494 158.075 259.491 157.584C258.488 157.093 257.656 156.432 256.995 155.6V164.4H254.595V142.32H256.995V144.72C257.656 143.888 258.488 143.227 259.491 142.736C260.494 142.245 261.582 142 262.755 142ZM262.595 156.08C263.64 156.08 264.59 155.824 265.443 155.312C266.318 154.779 267.011 154.064 267.523 153.168C268.035 152.272 268.291 151.269 268.291 150.16C268.291 149.051 268.035 148.048 267.523 147.152C267.011 146.256 266.318 145.552 265.443 145.04C264.59 144.507 263.64 144.24 262.595 144.24C261.55 144.24 260.579 144.507 259.683 145.04C258.808 145.552 258.115 146.256 257.603 147.152C257.091 148.048 256.835 149.051 256.835 150.16C256.835 151.269 257.091 152.272 257.603 153.168C258.115 154.064 258.808 154.779 259.683 155.312C260.579 155.824 261.55 156.08 262.595 156.08ZM292.573 142.32H294.973V158H292.573V155.6C291.912 156.432 291.08 157.093 290.077 157.584C289.075 158.075 287.987 158.32 286.813 158.32C285.384 158.32 284.051 157.968 282.813 157.264C281.576 156.539 280.595 155.557 279.869 154.32C279.144 153.061 278.781 151.675 278.781 150.16C278.781 148.645 279.144 147.269 279.869 146.032C280.595 144.773 281.576 143.792 282.813 143.088C284.051 142.363 285.384 142 286.813 142C287.987 142 289.075 142.245 290.077 142.736C291.08 143.227 291.912 143.888 292.573 144.72V142.32ZM287.005 156.08C288.051 156.08 289.011 155.824 289.885 155.312C290.76 154.779 291.453 154.064 291.965 153.168C292.477 152.272 292.733 151.269 292.733 150.16C292.733 149.051 292.477 148.048 291.965 147.152C291.453 146.256 290.76 145.552 289.885 145.04C289.011 144.507 288.051 144.24 287.005 144.24C285.96 144.24 285 144.507 284.125 145.04C283.251 145.552 282.557 146.256 282.045 147.152C281.533 148.048 281.277 149.051 281.277 150.16C281.277 151.269 281.533 152.272 282.045 153.168C282.557 154.064 283.251 154.779 284.125 155.312C285 155.824 285.96 156.08 287.005 156.08ZM312.12 156.08C313.25 156.08 314.274 155.76 315.192 155.12C316.109 154.48 316.781 153.573 317.208 152.4H319.704C319.213 154.213 318.317 155.632 317.016 156.656C315.714 157.68 314.21 158.235 312.504 158.32L311.768 159.664C312.536 159.664 313.154 159.867 313.624 160.272C314.093 160.699 314.328 161.253 314.328 161.936C314.328 162.619 314.093 163.173 313.624 163.6C313.154 164.027 312.525 164.24 311.736 164.24H310.296V163.344H311.8C312.312 163.344 312.706 163.216 312.984 162.96C313.282 162.725 313.432 162.384 313.432 161.936C313.432 161.509 313.282 161.168 312.984 160.912C312.706 160.677 312.312 160.56 311.8 160.56H310.616V160.08L311.512 158.288C310.146 158.203 308.898 157.797 307.768 157.072C306.637 156.325 305.741 155.355 305.08 154.16C304.418 152.944 304.088 151.611 304.088 150.16C304.088 148.645 304.45 147.269 305.176 146.032C305.901 144.773 306.872 143.792 308.088 143.088C309.325 142.363 310.669 142 312.12 142C313.89 142 315.469 142.523 316.856 143.568C318.242 144.592 319.192 146.043 319.704 147.92H317.208C316.781 146.747 316.109 145.84 315.192 145.2C314.274 144.56 313.25 144.24 312.12 144.24C311.117 144.24 310.189 144.507 309.336 145.04C308.482 145.552 307.81 146.256 307.32 147.152C306.829 148.048 306.584 149.051 306.584 150.16C306.584 151.269 306.829 152.272 307.32 153.168C307.81 154.064 308.482 154.779 309.336 155.312C310.189 155.824 311.117 156.08 312.12 156.08ZM335.742 158.32C334.249 158.32 332.873 157.968 331.614 157.264C330.377 156.539 329.385 155.557 328.638 154.32C327.913 153.061 327.55 151.675 327.55 150.16C327.55 148.645 327.913 147.269 328.638 146.032C329.385 144.773 330.377 143.792 331.614 143.088C332.873 142.363 334.249 142 335.742 142C337.235 142 338.601 142.363 339.838 143.088C341.097 143.792 342.089 144.773 342.814 146.032C343.561 147.269 343.934 148.645 343.934 150.16C343.934 151.675 343.561 153.061 342.814 154.32C342.089 155.557 341.097 156.539 339.838 157.264C338.601 157.968 337.235 158.32 335.742 158.32ZM335.742 156.08C336.787 156.08 337.737 155.824 338.59 155.312C339.465 154.779 340.158 154.064 340.67 153.168C341.182 152.272 341.438 151.269 341.438 150.16C341.438 149.051 341.182 148.048 340.67 147.152C340.158 146.256 339.465 145.552 338.59 145.04C337.737 144.507 336.787 144.24 335.742 144.24C334.697 144.24 333.737 144.507 332.862 145.04C332.009 145.552 331.326 146.256 330.814 147.152C330.302 148.048 330.046 149.051 330.046 150.16C330.046 151.269 330.302 152.272 330.814 153.168C331.326 154.064 332.009 154.779 332.862 155.312C333.737 155.824 334.697 156.08 335.742 156.08ZM376.068 142C377.497 142 378.83 142.363 380.068 143.088C381.305 143.792 382.286 144.773 383.012 146.032C383.737 147.269 384.1 148.645 384.1 150.16C384.1 151.675 383.737 153.061 383.012 154.32C382.286 155.557 381.305 156.539 380.068 157.264C378.83 157.968 377.497 158.32 376.068 158.32C374.894 158.32 373.806 158.075 372.804 157.584C371.801 157.093 370.969 156.432 370.308 155.6V164.4H367.908V142.32H370.308V144.72C370.969 143.888 371.801 143.227 372.804 142.736C373.806 142.245 374.894 142 376.068 142ZM375.908 156.08C376.953 156.08 377.902 155.824 378.756 155.312C379.63 154.779 380.324 154.064 380.836 153.168C381.348 152.272 381.604 151.269 381.604 150.16C381.604 149.051 381.348 148.048 380.836 147.152C380.324 146.256 379.63 145.552 378.756 145.04C377.902 144.507 376.953 144.24 375.908 144.24C374.862 144.24 373.892 144.507 372.996 145.04C372.121 145.552 371.428 146.256 370.916 147.152C370.404 148.048 370.148 149.051 370.148 150.16C370.148 151.269 370.404 152.272 370.916 153.168C371.428 154.064 372.121 154.779 372.996 155.312C373.892 155.824 374.862 156.08 375.908 156.08ZM405.886 142.32H408.286V158H405.886V155.6C405.224 156.432 404.392 157.093 403.39 157.584C402.387 158.075 401.299 158.32 400.126 158.32C398.696 158.32 397.363 157.968 396.126 157.264C394.888 156.539 393.907 155.557 393.182 154.32C392.456 153.061 392.094 151.675 392.094 150.16C392.094 148.645 392.456 147.269 393.182 146.032C393.907 144.773 394.888 143.792 396.126 143.088C397.363 142.363 398.696 142 400.126 142C401.299 142 402.387 142.245 403.39 142.736C404.392 143.227 405.224 143.888 405.886 144.72V142.32ZM400.318 156.08C401.363 156.08 402.323 155.824 403.198 155.312C404.072 154.779 404.766 154.064 405.278 153.168C405.79 152.272 406.046 151.269 406.046 150.16C406.046 149.051 405.79 148.048 405.278 147.152C404.766 146.256 404.072 145.552 403.198 145.04C402.323 144.507 401.363 144.24 400.318 144.24C399.272 144.24 398.312 144.507 397.438 145.04C396.563 145.552 395.87 146.256 395.358 147.152C394.846 148.048 394.59 149.051 394.59 150.16C394.59 151.269 394.846 152.272 395.358 153.168C395.87 154.064 396.563 154.779 397.438 155.312C398.312 155.824 399.272 156.08 400.318 156.08ZM427.16 142.16V144.4H425.56C424.707 144.4 423.928 144.603 423.224 145.008C422.52 145.392 421.955 145.936 421.528 146.64C421.123 147.344 420.92 148.144 420.92 149.04V158H418.52V142.32H420.92V144.56C421.56 143.771 422.296 143.173 423.128 142.768C423.981 142.363 424.899 142.16 425.88 142.16H427.16ZM447.998 142.32H450.398V158H447.998V155.6C447.337 156.432 446.505 157.093 445.502 157.584C444.5 158.075 443.412 158.32 442.238 158.32C440.809 158.32 439.476 157.968 438.238 157.264C437.001 156.539 436.02 155.557 435.294 154.32C434.569 153.061 434.206 151.675 434.206 150.16C434.206 148.645 434.569 147.269 435.294 146.032C436.02 144.773 437.001 143.792 438.238 143.088C439.476 142.363 440.809 142 442.238 142C443.412 142 444.5 142.245 445.502 142.736C446.505 143.227 447.337 143.888 447.998 144.72V142.32ZM442.43 156.08C443.476 156.08 444.436 155.824 445.31 155.312C446.185 154.779 446.878 154.064 447.39 153.168C447.902 152.272 448.158 151.269 448.158 150.16C448.158 149.051 447.902 148.048 447.39 147.152C446.878 146.256 446.185 145.552 445.31 145.04C444.436 144.507 443.476 144.24 442.43 144.24C441.385 144.24 440.425 144.507 439.55 145.04C438.676 145.552 437.982 146.256 437.47 147.152C436.958 148.048 436.702 149.051 436.702 150.16C436.702 151.269 436.958 152.272 437.47 153.168C437.982 154.064 438.676 154.779 439.55 155.312C440.425 155.824 441.385 156.08 442.43 156.08ZM482.413 158.32C480.963 158.32 479.619 157.968 478.381 157.264C477.165 156.539 476.195 155.557 475.469 154.32C474.744 153.061 474.381 151.675 474.381 150.16C474.381 148.645 474.744 147.269 475.469 146.032C476.195 144.773 477.165 143.792 478.381 143.088C479.619 142.363 480.963 142 482.413 142C484.184 142 485.763 142.523 487.149 143.568C488.536 144.592 489.485 146.043 489.997 147.92H487.501C487.075 146.747 486.403 145.84 485.485 145.2C484.568 144.56 483.544 144.24 482.413 144.24C481.411 144.24 480.483 144.507 479.629 145.04C478.776 145.552 478.104 146.256 477.613 147.152C477.123 148.048 476.877 149.051 476.877 150.16C476.877 151.269 477.123 152.272 477.613 153.168C478.104 154.064 478.776 154.779 479.629 155.312C480.483 155.824 481.411 156.08 482.413 156.08C483.544 156.08 484.568 155.76 485.485 155.12C486.403 154.48 487.075 153.573 487.501 152.4H489.997C489.485 154.277 488.536 155.739 487.149 156.784C485.763 157.808 484.184 158.32 482.413 158.32ZM505.62 158.32C504.276 158.32 503.081 158.032 502.036 157.456C501.012 156.859 500.212 156.037 499.636 154.992C499.081 153.947 498.804 152.763 498.804 151.44V142.32H501.204V151.44C501.204 152.805 501.609 153.925 502.42 154.8C503.23 155.653 504.297 156.08 505.62 156.08C506.942 156.08 508.009 155.653 508.82 154.8C509.63 153.925 510.036 152.805 510.036 151.44V142.32H512.436V151.44C512.436 152.763 512.148 153.947 511.572 154.992C511.017 156.037 510.217 156.859 509.172 157.456C508.148 158.032 506.964 158.32 505.62 158.32ZM524.92 158H522.52V142.32H524.92V158ZM525.08 138.96H522.36V138H525.08V138.96ZM547.842 134.96H550.242V158H547.842V155.6C547.181 156.432 546.349 157.093 545.346 157.584C544.343 158.075 543.255 158.32 542.082 158.32C540.653 158.32 539.319 157.968 538.082 157.264C536.845 156.539 535.863 155.557 535.138 154.32C534.413 153.061 534.05 151.675 534.05 150.16C534.05 148.645 534.413 147.269 535.138 146.032C535.863 144.773 536.845 143.792 538.082 143.088C539.319 142.363 540.653 142 542.082 142C543.255 142 544.343 142.245 545.346 142.736C546.349 143.227 547.181 143.888 547.842 144.72V134.96ZM542.274 156.08C543.319 156.08 544.279 155.824 545.154 155.312C546.029 154.779 546.722 154.064 547.234 153.168C547.746 152.272 548.002 151.269 548.002 150.16C548.002 149.051 547.746 148.048 547.234 147.152C546.722 146.256 546.029 145.552 545.154 145.04C544.279 144.507 543.319 144.24 542.274 144.24C541.229 144.24 540.269 144.507 539.394 145.04C538.519 145.552 537.826 146.256 537.314 147.152C536.802 148.048 536.546 149.051 536.546 150.16C536.546 151.269 536.802 152.272 537.314 153.168C537.826 154.064 538.519 154.779 539.394 155.312C540.269 155.824 541.229 156.08 542.274 156.08ZM573.305 142.32H575.705V158H573.305V155.6C572.643 156.432 571.811 157.093 570.809 157.584C569.806 158.075 568.718 158.32 567.545 158.32C566.115 158.32 564.782 157.968 563.545 157.264C562.307 156.539 561.326 155.557 560.601 154.32C559.875 153.061 559.513 151.675 559.513 150.16C559.513 148.645 559.875 147.269 560.601 146.032C561.326 144.773 562.307 143.792 563.545 143.088C564.782 142.363 566.115 142 567.545 142C568.718 142 569.806 142.245 570.809 142.736C571.811 143.227 572.643 143.888 573.305 144.72V142.32ZM567.737 156.08C568.782 156.08 569.742 155.824 570.617 155.312C571.491 154.779 572.185 154.064 572.697 153.168C573.209 152.272 573.465 151.269 573.465 150.16C573.465 149.051 573.209 148.048 572.697 147.152C572.185 146.256 571.491 145.552 570.617 145.04C569.742 144.507 568.782 144.24 567.737 144.24C566.691 144.24 565.731 144.507 564.857 145.04C563.982 145.552 563.289 146.256 562.777 147.152C562.265 148.048 562.009 149.051 562.009 150.16C562.009 151.269 562.265 152.272 562.777 153.168C563.289 154.064 563.982 154.779 564.857 155.312C565.731 155.824 566.691 156.08 567.737 156.08ZM594.579 142.16V144.4H592.979C592.125 144.4 591.347 144.603 590.643 145.008C589.939 145.392 589.373 145.936 588.947 146.64C588.541 147.344 588.339 148.144 588.339 149.04V158H585.939V142.32H588.339V144.56C588.979 143.771 589.715 143.173 590.547 142.768C591.4 142.363 592.317 142.16 593.299 142.16H594.579ZM629.317 134.96H631.717V158H629.317V155.6C628.656 156.432 627.824 157.093 626.821 157.584C625.818 158.075 624.73 158.32 623.557 158.32C622.128 158.32 620.794 157.968 619.557 157.264C618.32 156.539 617.338 155.557 616.613 154.32C615.888 153.061 615.525 151.675 615.525 150.16C615.525 148.645 615.888 147.269 616.613 146.032C617.338 144.773 618.32 143.792 619.557 143.088C620.794 142.363 622.128 142 623.557 142C624.73 142 625.818 142.245 626.821 142.736C627.824 143.227 628.656 143.888 629.317 144.72V134.96ZM623.749 156.08C624.794 156.08 625.754 155.824 626.629 155.312C627.504 154.779 628.197 154.064 628.709 153.168C629.221 152.272 629.477 151.269 629.477 150.16C629.477 149.051 629.221 148.048 628.709 147.152C628.197 146.256 627.504 145.552 626.629 145.04C625.754 144.507 624.794 144.24 623.749 144.24C622.704 144.24 621.744 144.507 620.869 145.04C619.994 145.552 619.301 146.256 618.789 147.152C618.277 148.048 618.021 149.051 618.021 150.16C618.021 151.269 618.277 152.272 618.789 153.168C619.301 154.064 619.994 154.779 620.869 155.312C621.744 155.824 622.704 156.08 623.749 156.08ZM654.78 142.32H657.18V158H654.78V155.6C654.118 156.432 653.286 157.093 652.284 157.584C651.281 158.075 650.193 158.32 649.02 158.32C647.59 158.32 646.257 157.968 645.02 157.264C643.782 156.539 642.801 155.557 642.076 154.32C641.35 153.061 640.988 151.675 640.988 150.16C640.988 148.645 641.35 147.269 642.076 146.032C642.801 144.773 643.782 143.792 645.02 143.088C646.257 142.363 647.59 142 649.02 142C650.193 142 651.281 142.245 652.284 142.736C653.286 143.227 654.118 143.888 654.78 144.72V142.32ZM649.212 156.08C650.257 156.08 651.217 155.824 652.092 155.312C652.966 154.779 653.66 154.064 654.172 153.168C654.684 152.272 654.94 151.269 654.94 150.16C654.94 149.051 654.684 148.048 654.172 147.152C653.66 146.256 652.966 145.552 652.092 145.04C651.217 144.507 650.257 144.24 649.212 144.24C648.166 144.24 647.206 144.507 646.332 145.04C645.457 145.552 644.764 146.256 644.252 147.152C643.74 148.048 643.484 149.051 643.484 150.16C643.484 151.269 643.74 152.272 644.252 153.168C644.764 154.064 645.457 154.779 646.332 155.312C647.206 155.824 648.166 156.08 649.212 156.08ZM687.658 158.32C685.824 158.32 684.341 157.829 683.21 156.848C682.08 155.845 681.472 154.469 681.386 152.72H683.786C683.872 153.829 684.245 154.672 684.906 155.248C685.568 155.803 686.485 156.08 687.658 156.08C688.64 156.08 689.45 155.877 690.09 155.472C690.73 155.067 691.05 154.491 691.05 153.744C691.05 153.168 690.88 152.709 690.538 152.368C690.197 152.005 689.77 151.739 689.258 151.568C688.768 151.397 688.064 151.205 687.146 150.992C685.994 150.736 685.077 150.48 684.394 150.224C683.712 149.947 683.125 149.509 682.634 148.912C682.144 148.315 681.898 147.504 681.898 146.48C681.898 145.627 682.144 144.859 682.634 144.176C683.146 143.493 683.829 142.96 684.682 142.576C685.536 142.192 686.474 142 687.498 142C689.12 142 690.474 142.491 691.562 143.472C692.65 144.432 693.248 145.755 693.354 147.44H690.954C690.848 146.373 690.474 145.573 689.834 145.04C689.216 144.507 688.405 144.24 687.402 144.24C686.549 144.24 685.834 144.443 685.258 144.848C684.682 145.232 684.394 145.776 684.394 146.48C684.394 146.992 684.554 147.408 684.874 147.728C685.216 148.048 685.621 148.293 686.09 148.464C686.581 148.635 687.264 148.827 688.138 149.04C689.29 149.296 690.218 149.573 690.922 149.872C691.648 150.149 692.266 150.597 692.778 151.216C693.29 151.835 693.546 152.677 693.546 153.744C693.546 155.109 692.981 156.219 691.85 157.072C690.72 157.904 689.322 158.32 687.658 158.32ZM709.714 158.32C708.37 158.32 707.175 158.032 706.13 157.456C705.106 156.859 704.306 156.037 703.73 154.992C703.175 153.947 702.898 152.763 702.898 151.44V142.32H705.298V151.44C705.298 152.805 705.703 153.925 706.514 154.8C707.324 155.653 708.391 156.08 709.714 156.08C711.036 156.08 712.103 155.653 712.914 154.8C713.724 153.925 714.13 152.805 714.13 151.44V142.32H716.53V151.44C716.53 152.763 716.242 153.947 715.666 154.992C715.111 156.037 714.311 156.859 713.266 157.456C712.242 158.032 711.058 158.32 709.714 158.32ZM739.286 142.32H741.686V158H739.286V155.6C738.624 156.432 737.792 157.093 736.79 157.584C735.787 158.075 734.699 158.32 733.526 158.32C732.096 158.32 730.763 157.968 729.526 157.264C728.288 156.539 727.307 155.557 726.582 154.32C725.856 153.061 725.494 151.675 725.494 150.16C725.494 148.645 725.856 147.269 726.582 146.032C727.307 144.773 728.288 143.792 729.526 143.088C730.763 142.363 732.096 142 733.526 142C734.699 142 735.787 142.245 736.79 142.736C737.792 143.227 738.624 143.888 739.286 144.72V142.32ZM733.718 156.08C734.763 156.08 735.723 155.824 736.598 155.312C737.472 154.779 738.166 154.064 738.678 153.168C739.19 152.272 739.446 151.269 739.446 150.16C739.446 149.051 739.19 148.048 738.678 147.152C738.166 146.256 737.472 145.552 736.598 145.04C735.723 144.507 734.763 144.24 733.718 144.24C732.672 144.24 731.712 144.507 730.838 145.04C729.963 145.552 729.27 146.256 728.758 147.152C728.246 148.048 727.99 149.051 727.99 150.16C727.99 151.269 728.246 152.272 728.758 153.168C729.27 154.064 729.963 154.779 730.838 155.312C731.712 155.824 732.672 156.08 733.718 156.08Z" fill="white"/>
<path d="M427.553 274.424C425.675 274.424 423.329 274.253 420.513 273.912C417.782 273.656 414.881 273.144 411.809 272.376C408.737 271.693 405.878 270.755 403.233 269.56C400.587 268.365 398.411 266.872 396.705 265.08C394.998 263.288 394.145 261.155 394.145 258.68C394.145 255.181 395.169 252.195 397.217 249.72C399.265 247.245 401.867 245.24 405.025 243.704C408.267 242.168 411.595 241.016 415.009 240.248C418.507 239.395 421.665 238.883 424.481 238.712C426.443 235.043 428.662 231.032 431.137 226.68C433.611 222.243 436.214 217.933 438.945 213.752C441.761 209.571 444.534 206.029 447.265 203.128C448.459 201.848 449.782 201.037 451.233 200.696C452.769 200.269 454.39 200.056 456.097 200.056C456.694 200.056 457.334 200.184 458.017 200.44C458.699 200.611 459.083 201.08 459.169 201.848C458.998 202.616 458.486 203.427 457.633 204.28C456.865 205.133 456.225 205.816 455.713 206.328C451.787 210.68 447.734 215.715 443.553 221.432C439.371 227.149 435.489 232.909 431.905 238.712C437.622 238.797 443.51 239.224 449.569 239.992C455.713 240.76 461.686 242.04 467.489 243.832C473.291 245.539 478.582 248.013 483.361 251.256C484.47 250.061 485.451 248.696 486.305 247.16C487.158 245.624 487.585 244.003 487.585 242.296C487.585 239.821 486.689 237.688 484.897 235.896C483.105 234.104 480.801 232.653 477.985 231.544C475.169 230.349 472.139 229.411 468.897 228.728C465.739 228.045 462.71 227.576 459.809 227.32C456.993 227.064 454.689 226.936 452.897 226.936C452.385 226.936 451.574 226.979 450.465 227.064C449.441 227.064 448.502 226.936 447.649 226.68C446.795 226.424 446.369 225.869 446.369 225.016C446.369 223.651 446.966 222.755 448.161 222.328C449.441 221.816 450.593 221.475 451.617 221.304C455.627 220.536 459.681 219.896 463.777 219.384C467.873 218.787 471.883 217.891 475.809 216.696C479.734 215.416 483.361 213.453 486.689 210.808C487.371 210.296 488.097 209.656 488.865 208.888C489.718 208.12 490.145 207.309 490.145 206.456C490.145 205.005 489.035 203.811 486.817 202.872C484.683 201.848 481.953 201.037 478.625 200.44C475.297 199.843 471.841 199.416 468.257 199.16C464.758 198.819 461.601 198.605 458.785 198.52C455.969 198.435 454.006 198.392 452.897 198.392C445.643 198.392 438.859 198.904 432.545 199.928C426.315 200.952 419.659 202.36 412.577 204.152C411.809 204.323 410.614 204.707 408.993 205.304C407.371 205.816 405.793 206.285 404.257 206.712C402.806 207.139 401.825 207.352 401.313 207.352C400.715 207.352 400.203 207.224 399.777 206.968C399.35 206.627 399.137 206.157 399.137 205.56C399.137 203.768 400.118 202.232 402.081 200.952C404.129 199.587 406.774 198.477 410.017 197.624C413.259 196.685 416.801 195.96 420.641 195.448C424.481 194.936 428.235 194.552 431.905 194.296C435.659 193.955 438.987 193.741 441.889 193.656C444.79 193.571 446.881 193.528 448.161 193.528C449.697 193.528 451.915 193.613 454.817 193.784C457.803 193.869 461.131 194.083 464.801 194.424C468.555 194.765 472.31 195.277 476.065 195.96C479.905 196.643 483.446 197.496 486.689 198.52C489.931 199.544 492.534 200.824 494.497 202.36C496.459 203.811 497.441 205.56 497.441 207.608C497.441 209.571 496.587 211.363 494.881 212.984C493.259 214.605 491.083 216.099 488.353 217.464C485.707 218.744 482.891 219.853 479.905 220.792C476.918 221.731 474.102 222.499 471.457 223.096C468.811 223.608 466.635 223.949 464.929 224.12C467.83 224.376 471.073 224.973 474.657 225.912C478.241 226.765 481.697 228.003 485.025 229.624C488.353 231.16 491.083 233.037 493.217 235.256C495.35 237.475 496.417 239.992 496.417 242.808C496.417 245.453 495.606 247.885 493.985 250.104C492.449 252.323 490.785 254.285 488.993 255.992C489.675 256.675 490.486 257.827 491.425 259.448C492.449 261.069 492.961 262.392 492.961 263.416C492.961 264.013 492.833 264.525 492.577 264.952C492.406 265.379 492.15 265.592 491.809 265.592C491.467 265.592 491.169 265.379 490.913 264.952C490.145 263.757 489.291 262.563 488.353 261.368C487.414 260.173 486.603 259.235 485.921 258.552C480.801 262.307 474.87 265.336 468.129 267.64C461.387 270.029 454.475 271.736 447.393 272.76C440.395 273.869 433.782 274.424 427.553 274.424ZM427.553 271.352C433.526 271.352 439.713 270.797 446.113 269.688C452.598 268.579 458.87 266.787 464.929 264.312C471.073 261.837 476.491 258.552 481.185 254.456C475.467 250.616 468.683 247.8 460.833 246.008C452.982 244.131 444.875 243.192 436.513 243.192C435.574 243.192 434.593 243.192 433.569 243.192C432.63 243.192 431.691 243.235 430.753 243.32L429.089 243.448C427.638 245.923 426.23 248.568 424.865 251.384C423.499 254.2 422.347 256.931 421.409 259.576C420.555 262.221 420.129 264.568 420.129 266.616C420.129 267.299 419.915 268.067 419.489 268.92C419.147 269.859 418.635 270.328 417.953 270.328C421.195 271.011 424.395 271.352 427.553 271.352ZM415.649 269.688C415.051 269.261 414.625 268.493 414.369 267.384C414.198 266.36 414.113 265.507 414.113 264.824C414.113 262.947 414.539 260.728 415.393 258.168C416.331 255.608 417.398 253.091 418.593 250.616C419.787 248.056 420.811 245.923 421.665 244.216C418.934 244.643 416.118 245.411 413.217 246.52C410.315 247.629 407.883 249.251 405.921 251.384C403.958 253.432 402.977 256.205 402.977 259.704C402.977 261.667 403.702 263.331 405.153 264.696C406.689 265.976 408.438 267 410.401 267.768C412.449 268.621 414.198 269.261 415.649 269.688ZM517.572 267.896C513.817 267.896 510.532 267 507.716 265.208C504.9 263.416 503.492 260.429 503.492 256.248C503.492 253.688 504.174 251.043 505.54 248.312C506.99 245.496 508.868 242.893 511.172 240.504C513.476 238.115 515.95 236.195 518.596 234.744C521.326 233.208 524.014 232.44 526.66 232.44C528.025 232.44 529.177 232.824 530.116 233.592C531.054 234.275 531.524 235.341 531.524 236.792C531.524 238.499 530.756 240.248 529.22 242.04C527.769 243.832 525.934 245.539 523.716 247.16C521.582 248.696 519.406 250.061 517.188 251.256C514.969 252.365 513.134 253.176 511.684 253.688C511.428 254.712 511.3 255.779 511.3 256.888C511.3 258.851 511.812 260.6 512.836 262.136C513.945 263.672 515.822 264.44 518.468 264.44C521.113 264.44 523.502 263.928 525.636 262.904C527.854 261.795 529.86 260.472 531.652 258.936C533.444 257.315 535.065 255.779 536.516 254.328C537.71 253.133 538.692 252.152 539.46 251.384C540.228 250.531 540.91 249.805 541.508 249.208C541.764 248.952 542.148 248.824 542.66 248.824C543.086 248.824 543.428 248.995 543.684 249.336C543.94 249.592 543.854 249.933 543.428 250.36C543.086 250.787 542.489 251.427 541.636 252.28C540.868 253.048 540.1 253.859 539.332 254.712C538.649 255.48 538.137 256.035 537.796 256.376C534.041 260.387 530.457 263.331 527.044 265.208C523.63 267 520.473 267.896 517.572 267.896ZM512.068 251.128C512.921 250.957 514.116 250.445 515.652 249.592C517.273 248.653 518.852 247.587 520.388 246.392C521.07 245.795 522.009 244.899 523.204 243.704C524.398 242.509 525.209 241.485 525.636 240.632C526.233 239.523 526.532 238.627 526.532 237.944C526.532 236.92 525.977 236.408 524.868 236.408C524.27 236.408 523.63 236.536 522.948 236.792C522.094 237.133 521.07 237.987 519.876 239.352C518.681 240.717 517.742 241.784 517.06 242.552C516.036 243.832 515.054 245.24 514.116 246.776C513.262 248.227 512.58 249.677 512.068 251.128ZM551.834 268.792C547.738 268.792 544.751 267.469 542.874 264.824C540.996 262.093 540.058 258.851 540.058 255.096C540.058 252.195 540.911 248.611 542.618 244.344C544.324 240.077 546.586 235.512 549.402 230.648C552.303 225.699 555.546 220.877 559.13 216.184C562.799 211.405 566.554 207.053 570.394 203.128C574.319 199.203 578.116 196.088 581.786 193.784C585.54 191.395 588.911 190.2 591.898 190.2C593.348 190.2 594.756 190.797 596.122 191.992C597.487 193.187 598.17 194.552 598.17 196.088C598.17 198.477 597.231 201.293 595.354 204.536C593.476 207.779 591.002 211.235 587.93 214.904C584.858 218.573 581.444 222.285 577.69 226.04C574.02 229.795 570.266 233.379 566.426 236.792C562.671 240.205 559.13 243.32 555.802 246.136C552.559 248.867 549.871 251.043 547.738 252.664C547.652 253.347 547.567 254.029 547.482 254.712C547.482 255.309 547.482 255.949 547.482 256.632C547.482 259.021 547.951 260.941 548.89 262.392C549.828 263.843 551.578 264.568 554.138 264.568C556.868 264.568 559.514 263.928 562.074 262.648C564.719 261.368 567.194 259.789 569.498 257.912C571.802 256.035 573.807 254.243 575.514 252.536C577.306 250.744 578.714 249.336 579.738 248.312C579.823 248.227 579.951 248.184 580.122 248.184C580.463 248.184 580.719 248.44 580.89 248.952C581.146 249.379 581.188 249.72 581.018 249.976C580.079 251.171 578.927 252.451 577.562 253.816C576.282 255.181 575.258 256.291 574.49 257.144C571.588 260.045 568.175 262.733 564.25 265.208C560.324 267.597 556.186 268.792 551.834 268.792ZM547.994 249.08C550.81 247.203 554.052 244.557 557.722 241.144C561.476 237.645 565.274 233.805 569.114 229.624C573.039 225.357 576.623 221.091 579.866 216.824C583.194 212.472 585.882 208.419 587.93 204.664C589.978 200.824 591.002 197.709 591.002 195.32C591.002 194.893 590.916 194.509 590.746 194.168C590.66 193.741 590.319 193.528 589.722 193.528C588.015 193.528 586.01 194.424 583.706 196.216C581.402 197.923 579.012 200.184 576.538 203C574.063 205.731 571.631 208.632 569.242 211.704C566.938 214.776 564.89 217.635 563.098 220.28C561.306 222.925 559.94 224.973 559.002 226.424C556.783 230.008 554.692 233.72 552.73 237.56C550.767 241.4 549.188 245.24 547.994 249.08ZM591.316 267.896C587.562 267.896 584.276 267 581.46 265.208C578.644 263.416 577.236 260.429 577.236 256.248C577.236 253.688 577.919 251.043 579.284 248.312C580.735 245.496 582.612 242.893 584.916 240.504C587.22 238.115 589.695 236.195 592.34 234.744C595.071 233.208 597.759 232.44 600.405 232.44C601.77 232.44 602.922 232.824 603.861 233.592C604.799 234.275 605.269 235.341 605.269 236.792C605.269 238.499 604.501 240.248 602.965 242.04C601.514 243.832 599.679 245.539 597.461 247.16C595.327 248.696 593.151 250.061 590.932 251.256C588.714 252.365 586.879 253.176 585.428 253.688C585.172 254.712 585.044 255.779 585.044 256.888C585.044 258.851 585.556 260.6 586.58 262.136C587.69 263.672 589.567 264.44 592.212 264.44C594.858 264.44 597.247 263.928 599.381 262.904C601.599 261.795 603.604 260.472 605.396 258.936C607.188 257.315 608.81 255.779 610.261 254.328C611.455 253.133 612.437 252.152 613.205 251.384C613.973 250.531 614.655 249.805 615.253 249.208C615.509 248.952 615.893 248.824 616.404 248.824C616.831 248.824 617.173 248.995 617.429 249.336C617.685 249.592 617.599 249.933 617.173 250.36C616.831 250.787 616.234 251.427 615.381 252.28C614.613 253.048 613.845 253.859 613.076 254.712C612.394 255.48 611.882 256.035 611.541 256.376C607.786 260.387 604.202 263.331 600.788 265.208C597.375 267 594.218 267.896 591.316 267.896ZM585.812 251.128C586.666 250.957 587.86 250.445 589.396 249.592C591.018 248.653 592.596 247.587 594.132 246.392C594.815 245.795 595.754 244.899 596.948 243.704C598.143 242.509 598.954 241.485 599.381 240.632C599.978 239.523 600.277 238.627 600.277 237.944C600.277 236.92 599.722 236.408 598.612 236.408C598.015 236.408 597.375 236.536 596.692 236.792C595.839 237.133 594.815 237.987 593.621 239.352C592.426 240.717 591.487 241.784 590.805 242.552C589.78 243.832 588.799 245.24 587.861 246.776C587.007 248.227 586.324 249.677 585.812 251.128ZM638.379 267.512C635.733 267.085 633.472 266.701 631.595 266.36C629.803 265.933 627.541 265.72 624.811 265.72C623.189 265.72 621.525 265.891 619.819 266.232C618.197 266.573 616.533 266.744 614.827 266.744C613.12 266.744 612.267 266.189 612.267 265.08C612.267 264.483 612.48 263.885 612.907 263.288C613.248 262.861 614.272 262.392 615.979 261.88C617.685 261.283 619.477 260.728 621.355 260.216C623.232 259.704 624.469 259.32 625.067 259.064C627.456 258.125 629.888 256.717 632.363 254.84C634.923 252.963 637.483 250.915 640.043 248.696C642.688 246.477 645.248 244.387 647.723 242.424C646.016 242.083 644.053 241.741 641.835 241.4C639.616 241.059 637.525 240.888 635.563 240.888C632.491 240.888 629.76 241.656 627.371 243.192C625.067 244.728 622.848 246.733 620.715 249.208C618.581 251.597 616.192 254.157 613.547 256.888C613.291 257.144 612.992 257.272 612.651 257.272C611.883 257.272 611.499 256.973 611.499 256.376C611.499 255.949 611.712 255.523 612.139 255.096C612.565 254.584 613.205 253.859 614.059 252.92C614.912 251.981 615.765 251 616.619 249.976C617.557 248.867 618.24 248.013 618.667 247.416C621.995 242.637 625.195 239.395 628.267 237.688C631.424 235.981 634.496 235.128 637.483 235.128C639.872 235.128 642.176 235.64 644.395 236.664C646.613 237.688 648.789 238.2 650.923 238.2C652.715 238.2 653.995 237.859 654.763 237.176C655.616 236.408 656.427 236.024 657.195 236.024C657.877 236.024 658.475 236.28 658.987 236.792C659.499 237.219 659.755 237.773 659.755 238.456C659.755 239.395 659.328 240.035 658.475 240.376C657.621 240.632 656.853 240.888 656.171 241.144C653.099 242.424 650.155 244.173 647.339 246.392C644.608 248.611 641.92 250.957 639.275 253.432C636.629 255.907 633.899 258.168 631.083 260.216C632.363 260.813 634.112 261.325 636.331 261.752C638.635 262.179 640.768 262.392 642.731 262.392C646.144 262.392 649.173 261.581 651.819 259.96C654.549 258.253 656.896 256.376 658.859 254.328C660.907 252.195 662.571 250.531 663.851 249.336C664.107 249.08 664.32 248.952 664.491 248.952C665.003 248.952 665.259 249.336 665.259 250.104C665.259 250.701 665.088 251.171 664.747 251.512C662.869 253.56 660.565 255.864 657.835 258.424C655.104 260.899 652.203 263.075 649.131 264.952C646.059 266.744 643.072 267.64 640.171 267.64C639.829 267.64 639.531 267.64 639.275 267.64C639.019 267.64 638.72 267.597 638.379 267.512ZM693.463 267.384C690.733 267.384 688.685 266.744 687.319 265.464C685.954 264.099 685.058 262.392 684.631 260.344C684.29 258.296 684.162 256.248 684.247 254.2C682.967 255.907 681.389 257.784 679.511 259.832C677.634 261.795 675.586 263.501 673.367 264.952C671.149 266.403 668.887 267.128 666.583 267.128C664.877 267.128 663.469 266.744 662.359 265.976C661.25 265.123 660.695 263.8 660.695 262.008C660.695 259.021 661.634 255.864 663.511 252.536C665.474 249.208 667.949 246.051 670.935 243.064C673.922 239.992 677.122 237.517 680.535 235.64C683.949 233.763 687.149 232.824 690.135 232.824C690.989 232.824 692.183 232.995 693.719 233.336C695.255 233.677 696.621 234.189 697.815 234.872C699.095 235.555 699.735 236.493 699.735 237.688C699.735 238.285 699.351 238.627 698.583 238.712C697.815 238.797 697.261 239.053 696.919 239.48C694.445 242.467 693.207 247.288 693.207 253.944C693.207 254.797 693.25 255.949 693.335 257.4C693.421 258.851 693.719 260.131 694.231 261.24C694.829 262.349 695.725 262.904 696.919 262.904C698.711 262.904 700.631 262.136 702.679 260.6C704.727 259.064 706.775 257.229 708.823 255.096C710.871 252.877 712.749 250.872 714.455 249.08C714.626 248.824 714.797 248.696 714.967 248.696C715.394 248.696 715.735 248.952 715.991 249.464C716.333 249.891 716.333 250.275 715.991 250.616C713.943 253.005 711.938 255.139 709.975 257.016C708.098 258.893 706.135 260.685 704.087 262.392C700.162 265.72 696.621 267.384 693.463 267.384ZM673.495 261.24C675.458 260.131 677.421 258.381 679.383 255.992C681.431 253.603 683.351 250.872 685.143 247.8C687.021 244.728 688.599 241.656 689.879 238.584C687.831 238.584 685.527 239.352 682.967 240.888C680.407 242.339 677.975 244.216 675.671 246.52C673.367 248.739 671.447 251.085 669.911 253.56C668.461 255.949 667.735 258.125 667.735 260.088C667.735 261.709 668.375 262.52 669.655 262.52C670.594 262.52 671.874 262.093 673.495 261.24Z" fill="#FFB600"/>
<defs>
<linearGradient id="paint0_linear_197_2" x1="613.5" y1="2" x2="613.5" y2="369" gradientUnits="userSpaceOnUse">
<stop stop-color="#FFB600"/>
<stop offset="0.942708" stop-color="#FFB600" stop-opacity="0"/>
</linearGradient>
<linearGradient id="paint1_linear_197_2" x1="459.5" y1="36" x2="459.5" y2="435" gradientUnits="userSpaceOnUse">
<stop stop-color="#FFB600"/>
<stop offset="1" stop-color="#FFB600" stop-opacity="0"/>
</linearGradient>
</defs>
</svg>
